{"title":"Zodiac 2007 DVDrip English Klam","uid":6884375,"size":1900200876,"categoryP":"video","categoryS":"movies","magnet":"?xt=urn:btih:0f4210c6e97b2a8d1f90a0e8b5827ff8f697cbf5&amp;dn=Zodiac+2007+DVDrip+English+Klam&amp;tr=udp%3A%2F%2Ftracker.openbittorrent.com%3A80&amp;tr=udp%3A%2F%2Fopen.demonii.com%3A1337&amp;tr=udp%3A%2F%2Ftracker.coppersurfer.tk%3A6969&amp;tr=udp%3A%2F%2Fexodus.desync.com%3A6969","seeders":0,"leechers":0,"uploader":"Klambake","files":-1,"time":1323771107,"description":"With: Jake Gyllenhaal, Robert Downey Jr. and Mark Ruffalo\n\nDeze film vertelt het waargebeurde verhaal van een beruchte seriemoordenaar die eind jaren '60 in San Francisco huishield. Deze moordenaar, die nooit opgepakt is, liet vreemde aanwijzingen en brieven achter bij zijn slachtoffers. Deze methode en het feit dat hij nooit is opgepakt geeft hem nog altijd een legendarische status.\n\nA San Francisco cartoonist becomes an amateur detective obsessed with tracking down the Zodiac killer. \n\n------------------------ Dutch Friends ------------------------\n---------------------------------------------------------------\n- Bezoek ook eens mijn vrienden op: &lt;a href=&quot; http://www.Film-Test.nl&quot; rel=&quot;nofollow&quot; target=&quot;_NEW&quot;&gt; http://www.Film-Test.nl&lt;/a&gt; --\n----- voor mijn Nederlandse Sync. ondertitels ---- en meer ----\n------- http://www.Film-Test.nl ---- voor Films en meer -------\n---------------------------------------------------------------\n\nGeneral:\n\nComplete name                    : Zodiac\\Zodiac.avi\nFormat                           : AVI\nFormat/Info                      : Audio Video Interleave\nFile size                        : 1.77 GiB\nDuration                         : 2h 31mn\nOverall bit rate                 : 1 675 Kbps\n\nVideo:\n\nFormat                           : MPEG-4 Visual\nFormat profile                   : Simple@L3\nFormat settings, BVOP            : No\nFormat settings, QPel            : No\nFormat settings, GMC             : No warppoints\nFormat settings, Matrix          : Default (H.263)\nCodec ID                         : XVID\nCodec ID/Hint                    : XviD\nDuration                         : 2h 31mn\nBit rate                         : 1 281 Kbps\nWidth                            : 720 pixels\nHeight                           : 304 pixels\nDisplay aspect ratio             : 2.35:1\nFrame rate                       : 25.000 fps\nColor space                      : YUV\nChroma subsampling               : 4:2:0\nBit depth                        : 8 bits\nScan type                        : Progressive\nCompression mode                 : Lossy\nBits/(Pixel*Frame)               : 0.234\nStream size                      : 1.35 GiB (76%)\nWriting library                  : XviD 1.1.2 (UTC 2006-11-01)\n\nAudio:\n\nFormat                           : AC-3\nFormat/Info                      : Audio Coding 3\nMode extension                   : CM (complete main)\nCodec ID                         : 2000\nDuration                         : 2h 31mn\nBit rate mode                    : Constant\nBit rate                         : 384 Kbps\nChannel(s)                       : 6 channels\nChannel positions                : Front: L C R, Side: L R, LFE\nSampling rate                    : 48.0 KHz\nBit depth                        : 16 bits\nCompression mode                 : Lossy\nStream size                      : 415 MiB (23%)\nAlignment                        : Aligned on interleaves\nInterleave, duration             : 32 ms (0.80 video frame)\nInterleave, preload duration     : 672 ms\n\n","torrent":{"xt":"urn:btih:0f4210c6e97b2a8d1f90a0e8b5827ff8f697cbf5","amp;dn":"Zodiac+2007+DVDrip+English+Klam","amp;tr":["udp%3A%2F%2Ftracker.openbittorrent.com%3A80","udp%3A%2F%2Fopen.demonii.com%3A1337","udp%3A%2F%2Ftracker.coppersurfer.tk%3A6969","udp%3A%2F%2Fexodus.desync.com%3A6969"],"infoHash":"0f4210c6e97b2a8d1f90a0e8b5827ff8f697cbf5","infoHashBuffer":{"type":"Buffer","data":[15,66,16,198,233,123,42,141,31,144,160,232,181,130,127,248,246,151,203,245]},"announce":[],"urlList":[]}}